<?xml version="1.0" ?><svg id="Layer_1" style="enable-background:new 0 0 74 74;" version="1.1" viewBox="0 0 74 74" xml:space="preserve" xmlns="http://www.w3.org/2000/svg" xmlns:xlink="http://www.w3.org/1999/xlink"><style extension="text/css">
	.st0{fill:#2B3033;}
</style><g><path class="st0" d="M58.8,26.4C58.8,26.4,58.8,26.4,58.8,26.4C58.8,26.4,58.8,26.4,58.8,26.4C58.8,26.4,58.8,26.4,58.8,26.4   c-0.5,0-0.9,0-1.4,0.1c1-7.4-2.1-14.9-8.2-19.4c-9.1-6.7-22.1-4.8-28.8,4.3c-2.3,3-3.6,6.6-3.9,10.3C8.9,22.2,3,28.5,3,36.2   c0,8,6.5,14.5,14.5,14.5h5.5c-0.6,1.7-1,3.5-1,5.4C22.1,64.3,28.8,71,37,71c8.2,0,14.9-6.7,14.9-14.9c0-1.9-0.4-3.7-1-5.4h7.9   c6.7,0,12.2-5.5,12.2-12.2C71,31.8,65.5,26.4,58.8,26.4z M37,67c-6,0-10.9-4.9-10.9-10.9S31,45.2,37,45.2s10.9,4.9,10.9,10.9   S43,67,37,67z M58.8,46.8c-3.2,0.2-6.5,0-9.6-0.1c-0.2,0-0.4,0-0.6-0.1c-0.2-0.1-0.4-0.3-0.6-0.5c-2.7-3.2-6.9-4.9-11-4.9   c-4.7,0-8.9,2.2-11.6,5.5h-7.9C11.7,46.7,7,42,7,36.2c0-4.7,3.4-9,7.9-10.2c4.8-1.3,9.9,1.1,12.1,5.6c0.1,0.2,0.2,0.5,0.3,0.7   c0.4,1,1.6,1.5,2.6,1.1c1-0.4,1.5-1.6,1.1-2.6c-1.9-4.6-5.8-7.8-10.6-8.8c0.3-3,1.4-5.8,3.2-8.2c5.4-7.4,15.9-8.9,23.2-3.5   c5.5,4.1,7.9,11,6.2,17.6c-1.6,0.8-3,2-4,3.4c-0.7,0.9-0.5,2.1,0.4,2.8c1.3,1,2.5-0.1,3.4-1.1c2.2-2.4,6-3.3,9.1-2   c3.1,1.3,5.2,4.5,5.1,7.8c-0.1,3.3-2.4,6.4-5.6,7.5C60.6,46.5,59.7,46.7,58.8,46.8z"/><path class="st0" d="M39.6,51.9L35.5,56l-1.1-1.1c-0.8-0.8-2-0.8-2.8,0c-0.8,0.8-0.8,2,0,2.8l2.5,2.5c0.4,0.4,0.9,0.6,1.4,0.6   s1-0.2,1.4-0.6l5.6-5.6c0.8-0.8,0.8-2,0-2.8S40.4,51.1,39.6,51.9z"/></g></svg>